<svg width="179" height="32" viewBox="0 0 179 32" fill="none" xmlns="http://www.w3.org/2000/svg">
<rect width="179" height="32" rx="4" fill="#2B3A67"/>
<path d="M32.9902 20V11.4688H35.3984C36.1406 11.4688 36.7969 11.6328 37.3672 11.9609C37.9375 12.2891 38.377 12.7559 38.6855 13.3613C38.998 13.9668 39.1562 14.6621 39.1602 15.4473V15.9922C39.1602 16.7969 39.0039 17.502 38.6914 18.1074C38.3828 18.7129 37.9395 19.1777 37.3613 19.502C36.7871 19.8262 36.1172 19.9922 35.3516 20H32.9902ZM34.1152 12.3945V19.0801H35.2988C36.166 19.0801 36.8398 18.8105 37.3203 18.2715C37.8047 17.7324 38.0469 16.9648 38.0469 15.9688V15.4707C38.0469 14.502 37.8184 13.75 37.3613 13.2148C36.9082 12.6758 36.2637 12.4023 35.4277 12.3945H34.1152ZM43.3262 20.1172C42.4668 20.1172 41.7676 19.8359 41.2285 19.2734C40.6895 18.707 40.4199 17.9512 40.4199 17.0059V16.8066C40.4199 16.1777 40.5391 15.6172 40.7773 15.125C41.0195 14.6289 41.3555 14.2422 41.7852 13.9648C42.2188 13.6836 42.6875 13.543 43.1914 13.543C44.0156 13.543 44.6562 13.8145 45.1133 14.3574C45.5703 14.9004 45.7988 15.6777 45.7988 16.6895V17.1406H41.5039C41.5195 17.7656 41.7012 18.2715 42.0488 18.6582C42.4004 19.041 42.8457 19.2324 43.3848 19.2324C43.7676 19.2324 44.0918 19.1543 44.3574 18.998C44.623 18.8418 44.8555 18.6348 45.0547 18.377L45.7168 18.8926C45.1855 19.709 44.3887 20.1172 43.3262 20.1172ZM43.1914 14.4336C42.7539 14.4336 42.3867 14.5938 42.0898 14.9141C41.793 15.2305 41.6094 15.6758 41.5391 16.25H44.7148V16.168C44.6836 15.6172 44.5352 15.1914 44.2695 14.8906C44.0039 14.5859 43.6445 14.4336 43.1914 14.4336ZM52.4141 16.9004C52.4141 17.8652 52.1934 18.6426 51.752 19.2324C51.3105 19.8223 50.7129 20.1172 49.959 20.1172C49.1895 20.1172 48.584 19.873 48.1426 19.3848V22.4375H47.0586V13.6602H48.0488L48.1016 14.3633C48.543 13.8164 49.1562 13.543 49.9414 13.543C50.7031 13.543 51.3047 13.8301 51.7461 14.4043C52.1914 14.9785 52.4141 15.7773 52.4141 16.8008V16.9004ZM51.3301 16.7773C51.3301 16.0625 51.1777 15.498 50.873 15.084C50.5684 14.6699 50.1504 14.4629 49.6191 14.4629C48.9629 14.4629 48.4707 14.7539 48.1426 15.3359V18.3652C48.4668 18.9434 48.9629 19.2324 49.6309 19.2324C50.1504 19.2324 50.5625 19.0273 50.8672 18.6172C51.1758 18.2031 51.3301 17.5898 51.3301 16.7773ZM54.9746 20H53.8906V11H54.9746V20ZM56.4277 16.7715C56.4277 16.1504 56.5488 15.5918 56.791 15.0957C57.0371 14.5996 57.377 14.2168 57.8105 13.9473C58.248 13.6777 58.7461 13.543 59.3047 13.543C60.168 13.543 60.8652 13.8418 61.3965 14.4395C61.9316 15.0371 62.1992 15.832 62.1992 16.8242V16.9004C62.1992 17.5176 62.0801 18.0723 61.8418 18.5645C61.6074 19.0527 61.2695 19.4336 60.8281 19.707C60.3906 19.9805 59.8867 20.1172 59.3164 20.1172C58.457 20.1172 57.7598 19.8184 57.2246 19.2207C56.6934 18.623 56.4277 17.832 56.4277 16.8477V16.7715ZM57.5176 16.9004C57.5176 17.6035 57.6797 18.168 58.0039 18.5938C58.332 19.0195 58.7695 19.2324 59.3164 19.2324C59.8672 19.2324 60.3047 19.0176 60.6289 18.5879C60.9531 18.1543 61.1152 17.5488 61.1152 16.7715C61.1152 16.0762 60.9492 15.5137 60.6172 15.084C60.2891 14.6504 59.8516 14.4336 59.3047 14.4336C58.7695 14.4336 58.3379 14.6465 58.0098 15.0723C57.6816 15.498 57.5176 16.1074 57.5176 16.9004ZM65.5391 18.4121L67.0156 13.6602H68.1758L65.627 20.9785C65.2324 22.0332 64.6055 22.5605 63.7461 22.5605L63.541 22.543L63.1367 22.4668V21.5879L63.4297 21.6113C63.7969 21.6113 64.082 21.5371 64.2852 21.3887C64.4922 21.2402 64.6621 20.9688 64.7949 20.5742L65.0352 19.9297L62.7734 13.6602H63.957L65.5391 18.4121ZM73.5957 12.125V13.6602H74.7793V14.498H73.5957V18.4297C73.5957 18.6836 73.6484 18.875 73.7539 19.0039C73.8594 19.1289 74.0391 19.1914 74.293 19.1914C74.418 19.1914 74.5898 19.168 74.8086 19.1211V20C74.5234 20.0781 74.2461 20.1172 73.9766 20.1172C73.4922 20.1172 73.127 19.9707 72.8809 19.6777C72.6348 19.3848 72.5117 18.9688 72.5117 18.4297V14.498H71.3574V13.6602H72.5117V12.125H73.5957ZM75.6465 16.7715C75.6465 16.1504 75.7676 15.5918 76.0098 15.0957C76.2559 14.5996 76.5957 14.2168 77.0293 13.9473C77.4668 13.6777 77.9648 13.543 78.5234 13.543C79.3867 13.543 80.084 13.8418 80.6152 14.4395C81.1504 15.0371 81.418 15.832 81.418 16.8242V16.9004C81.418 17.5176 81.2988 18.0723 81.0605 18.5645C80.8262 19.0527 80.4883 19.4336 80.0469 19.707C79.6094 19.9805 79.1055 20.1172 78.5352 20.1172C77.6758 20.1172 76.9785 19.8184 76.4434 19.2207C75.9121 18.623 75.6465 17.832 75.6465 16.8477V16.7715ZM76.7363 16.9004C76.7363 17.6035 76.8984 18.168 77.2227 18.5938C77.5508 19.0195 77.9883 19.2324 78.5352 19.2324C79.0859 19.2324 79.5234 19.0176 79.8477 18.5879C80.1719 18.1543 80.334 17.5488 80.334 16.7715C80.334 16.0762 80.168 15.5137 79.8359 15.084C79.5078 14.6504 79.0703 14.4336 78.5234 14.4336C77.9883 14.4336 77.5566 14.6465 77.2285 15.0723C76.9004 15.498 76.7363 16.1074 76.7363 16.9004ZM90.6348 17.7734H87.0605L86.2578 20H85.0977L88.3555 11.4688H89.3398L92.6035 20H91.4492L90.6348 17.7734ZM87.4004 16.8477H90.3008L88.8477 12.8574L87.4004 16.8477ZM95.1816 17.3105L95.3457 18.4355L95.5859 17.4219L97.2734 11.4688H98.2227L99.8691 17.4219L100.104 18.4531L100.285 17.3047L101.609 11.4688H102.74L100.672 20H99.6465L97.8887 13.7832L97.7539 13.1328L97.6191 13.7832L95.7969 20H94.7715L92.709 11.4688H93.834L95.1816 17.3105ZM106.508 16.1973C105.543 15.9199 104.84 15.5801 104.398 15.1777C103.961 14.7715 103.742 14.2715 103.742 13.6777C103.742 13.0059 104.01 12.4512 104.545 12.0137C105.084 11.5723 105.783 11.3516 106.643 11.3516C107.229 11.3516 107.75 11.4648 108.207 11.6914C108.668 11.918 109.023 12.2305 109.273 12.6289C109.527 13.0273 109.654 13.4629 109.654 13.9355H108.523C108.523 13.4199 108.359 13.0156 108.031 12.7227C107.703 12.4258 107.24 12.2773 106.643 12.2773C106.088 12.2773 105.654 12.4004 105.342 12.6465C105.033 12.8887 104.879 13.2266 104.879 13.6602C104.879 14.0078 105.025 14.3027 105.318 14.5449C105.615 14.7832 106.117 15.002 106.824 15.2012C107.535 15.4004 108.09 15.6211 108.488 15.8633C108.891 16.1016 109.188 16.3809 109.379 16.7012C109.574 17.0215 109.672 17.3984 109.672 17.832C109.672 18.5234 109.402 19.0781 108.863 19.4961C108.324 19.9102 107.604 20.1172 106.701 20.1172C106.115 20.1172 105.568 20.0059 105.061 19.7832C104.553 19.5566 104.16 19.248 103.883 18.8574C103.609 18.4668 103.473 18.0234 103.473 17.5273H104.604C104.604 18.043 104.793 18.4512 105.172 18.752C105.555 19.0488 106.064 19.1973 106.701 19.1973C107.295 19.1973 107.75 19.0762 108.066 18.834C108.383 18.5918 108.541 18.2617 108.541 17.8438C108.541 17.4258 108.395 17.1035 108.102 16.877C107.809 16.6465 107.277 16.4199 106.508 16.1973Z" fill="white"/>
<path d="M119.539 18.5059L120.758 13.6602H121.842L119.996 20H119.117L117.576 15.1953L116.076 20H115.197L113.357 13.6602H114.436L115.684 18.4062L117.16 13.6602H118.033L119.539 18.5059ZM124.127 20H123.043V13.6602H124.127V20ZM122.955 11.9785C122.955 11.8027 123.008 11.6543 123.113 11.5332C123.223 11.4121 123.383 11.3516 123.594 11.3516C123.805 11.3516 123.965 11.4121 124.074 11.5332C124.184 11.6543 124.238 11.8027 124.238 11.9785C124.238 12.1543 124.184 12.3008 124.074 12.418C123.965 12.5352 123.805 12.5938 123.594 12.5938C123.383 12.5938 123.223 12.5352 123.113 12.418C123.008 12.3008 122.955 12.1543 122.955 11.9785ZM127.338 12.125V13.6602H128.521V14.498H127.338V18.4297C127.338 18.6836 127.391 18.875 127.496 19.0039C127.602 19.1289 127.781 19.1914 128.035 19.1914C128.16 19.1914 128.332 19.168 128.551 19.1211V20C128.266 20.0781 127.988 20.1172 127.719 20.1172C127.234 20.1172 126.869 19.9707 126.623 19.6777C126.377 19.3848 126.254 18.9688 126.254 18.4297V14.498H125.1V13.6602H126.254V12.125H127.338ZM130.877 14.4277C131.357 13.8379 131.982 13.543 132.752 13.543C134.092 13.543 134.768 14.2988 134.779 15.8105V20H133.695V15.8047C133.691 15.3477 133.586 15.0098 133.379 14.791C133.176 14.5723 132.857 14.4629 132.424 14.4629C132.072 14.4629 131.764 14.5566 131.498 14.7441C131.232 14.9316 131.025 15.1777 130.877 15.4824V20H129.793V11H130.877V14.4277ZM146.111 16.0098C146.111 16.8457 145.971 17.5762 145.689 18.2012C145.408 18.8223 145.01 19.2969 144.494 19.625C143.979 19.9531 143.377 20.1172 142.689 20.1172C142.018 20.1172 141.422 19.9531 140.902 19.625C140.383 19.293 139.979 18.8223 139.689 18.2129C139.404 17.5996 139.258 16.8906 139.25 16.0859V15.4707C139.25 14.6504 139.393 13.9258 139.678 13.2969C139.963 12.668 140.365 12.1875 140.885 11.8555C141.408 11.5195 142.006 11.3516 142.678 11.3516C143.361 11.3516 143.963 11.5176 144.482 11.8496C145.006 12.1777 145.408 12.6562 145.689 13.2852C145.971 13.9102 146.111 14.6387 146.111 15.4707V16.0098ZM144.992 15.459C144.992 14.4473 144.789 13.6719 144.383 13.1328C143.977 12.5898 143.408 12.3184 142.678 12.3184C141.967 12.3184 141.406 12.5898 140.996 13.1328C140.59 13.6719 140.381 14.4219 140.369 15.3828V16.0098C140.369 16.9902 140.574 17.7617 140.984 18.3242C141.398 18.8828 141.967 19.1621 142.689 19.1621C143.416 19.1621 143.979 18.8984 144.377 18.3711C144.775 17.8398 144.98 17.0801 144.992 16.0918V15.459ZM152.984 16.9004C152.984 17.8652 152.764 18.6426 152.322 19.2324C151.881 19.8223 151.283 20.1172 150.529 20.1172C149.76 20.1172 149.154 19.873 148.713 19.3848V22.4375H147.629V13.6602H148.619L148.672 14.3633C149.113 13.8164 149.727 13.543 150.512 13.543C151.273 13.543 151.875 13.8301 152.316 14.4043C152.762 14.9785 152.984 15.7773 152.984 16.8008V16.9004ZM151.9 16.7773C151.9 16.0625 151.748 15.498 151.443 15.084C151.139 14.6699 150.721 14.4629 150.189 14.4629C149.533 14.4629 149.041 14.7539 148.713 15.3359V18.3652C149.037 18.9434 149.533 19.2324 150.201 19.2324C150.721 19.2324 151.133 19.0273 151.438 18.6172C151.746 18.2031 151.9 17.5898 151.9 16.7773ZM155.838 12.125V13.6602H157.021V14.498H155.838V18.4297C155.838 18.6836 155.891 18.875 155.996 19.0039C156.102 19.1289 156.281 19.1914 156.535 19.1914C156.66 19.1914 156.832 19.168 157.051 19.1211V20C156.766 20.0781 156.488 20.1172 156.219 20.1172C155.734 20.1172 155.369 19.9707 155.123 19.6777C154.877 19.3848 154.754 18.9688 154.754 18.4297V14.498H153.6V13.6602H154.754V12.125H155.838ZM162.207 20C162.145 19.875 162.094 19.6523 162.055 19.332C161.551 19.8555 160.949 20.1172 160.25 20.1172C159.625 20.1172 159.111 19.9414 158.709 19.5898C158.311 19.2344 158.111 18.7852 158.111 18.2422C158.111 17.582 158.361 17.0703 158.861 16.707C159.365 16.3398 160.072 16.1562 160.982 16.1562H162.037V15.6582C162.037 15.2793 161.924 14.9785 161.697 14.7559C161.471 14.5293 161.137 14.416 160.695 14.416C160.309 14.416 159.984 14.5137 159.723 14.709C159.461 14.9043 159.33 15.1406 159.33 15.418H158.24C158.24 15.1016 158.352 14.7969 158.574 14.5039C158.801 14.207 159.105 13.9727 159.488 13.8008C159.875 13.6289 160.299 13.543 160.76 13.543C161.49 13.543 162.062 13.7266 162.477 14.0938C162.891 14.457 163.105 14.959 163.121 15.5996V18.5176C163.121 19.0996 163.195 19.5625 163.344 19.9062V20H162.207ZM160.408 19.1738C160.748 19.1738 161.07 19.0859 161.375 18.9102C161.68 18.7344 161.9 18.5059 162.037 18.2246V16.9238H161.188C159.859 16.9238 159.195 17.3125 159.195 18.0898C159.195 18.4297 159.309 18.6953 159.535 18.8867C159.762 19.0781 160.053 19.1738 160.408 19.1738Z" fill="#AAB0C2"/>
<path d="M19.3722 18.6427C18.2082 18.6427 17.1013 18.187 16.2554 17.3595L16.2532 17.3573C15.4258 16.5115 14.9703 15.4046 14.9703 14.2405V14.096H16.7863V14.2413C16.7863 14.9272 17.0587 15.5849 17.5437 16.0699C18.0286 16.5548 18.6864 16.8273 19.3722 16.8273C20.058 16.8273 20.7158 16.5548 21.2007 16.0699C21.6857 15.5849 21.9581 14.9272 21.9581 14.2413C21.9592 13.903 21.8928 13.5679 21.7628 13.2556C21.6328 12.9433 21.4417 12.6601 21.2008 12.4225C20.9602 12.1837 20.6748 11.9946 20.3611 11.866C20.0473 11.7375 19.7113 11.672 19.3722 11.6734H19.2267V9.85638H19.3722C20.5548 9.85638 21.6559 10.3061 22.4726 11.1228C23.3121 11.9622 23.7742 13.0693 23.7742 14.2407C23.7742 15.4122 23.3119 16.5193 22.4726 17.3587C22.0664 17.7671 21.5832 18.0908 21.051 18.3112C20.5188 18.5316 19.9482 18.6443 19.3722 18.6427Z" fill="#EF7C52"/>
<path d="M23.8217 20.3779H14.9966V22.1436H23.8217V20.3779Z" fill="white"/>
</svg>
