<svg width="123" height="32" viewBox="0 0 123 32" fill="none" xmlns="http://www.w3.org/2000/svg">
<rect width="123" height="32" rx="4" fill="#2B3A67"/>
<path d="M32.7322 20V11.4688H35.1404C35.8826 11.4688 36.5388 11.6328 37.1091 11.9609C37.6794 12.2891 38.1189 12.7559 38.4275 13.3613C38.74 13.9668 38.8982 14.6621 38.9021 15.4473V15.9922C38.9021 16.7969 38.7458 17.502 38.4333 18.1074C38.1248 18.7129 37.6814 19.1777 37.1033 19.502C36.5291 19.8262 35.8591 19.9922 35.0935 20H32.7322ZM33.8572 12.3945V19.0801H35.0408C35.908 19.0801 36.5818 18.8105 37.0623 18.2715C37.5466 17.7324 37.7888 16.9648 37.7888 15.9688V15.4707C37.7888 14.502 37.5603 13.75 37.1033 13.2148C36.6501 12.6758 36.0056 12.4023 35.1697 12.3945H33.8572ZM43.0681 20.1172C42.2087 20.1172 41.5095 19.8359 40.9705 19.2734C40.4314 18.707 40.1619 17.9512 40.1619 17.0059V16.8066C40.1619 16.1777 40.281 15.6172 40.5193 15.125C40.7615 14.6289 41.0974 14.2422 41.5271 13.9648C41.9607 13.6836 42.4294 13.543 42.9333 13.543C43.7576 13.543 44.3982 13.8145 44.8552 14.3574C45.3123 14.9004 45.5408 15.6777 45.5408 16.6895V17.1406H41.2458C41.2615 17.7656 41.4431 18.2715 41.7908 18.6582C42.1423 19.041 42.5876 19.2324 43.1267 19.2324C43.5095 19.2324 43.8337 19.1543 44.0994 18.998C44.365 18.8418 44.5974 18.6348 44.7966 18.377L45.4587 18.8926C44.9275 19.709 44.1306 20.1172 43.0681 20.1172ZM42.9333 14.4336C42.4958 14.4336 42.1287 14.5938 41.8318 14.9141C41.5349 15.2305 41.3513 15.6758 41.281 16.25H44.4568V16.168C44.4255 15.6172 44.2771 15.1914 44.0115 14.8906C43.7458 14.5859 43.3865 14.4336 42.9333 14.4336ZM52.156 16.9004C52.156 17.8652 51.9353 18.6426 51.4939 19.2324C51.0525 19.8223 50.4548 20.1172 49.7009 20.1172C48.9314 20.1172 48.3259 19.873 47.8845 19.3848V22.4375H46.8005V13.6602H47.7908L47.8435 14.3633C48.2849 13.8164 48.8982 13.543 49.6833 13.543C50.4451 13.543 51.0466 13.8301 51.488 14.4043C51.9333 14.9785 52.156 15.7773 52.156 16.8008V16.9004ZM51.072 16.7773C51.072 16.0625 50.9197 15.498 50.615 15.084C50.3103 14.6699 49.8923 14.4629 49.3611 14.4629C48.7048 14.4629 48.2126 14.7539 47.8845 15.3359V18.3652C48.2087 18.9434 48.7048 19.2324 49.3728 19.2324C49.8923 19.2324 50.3044 19.0273 50.6091 18.6172C50.9177 18.2031 51.072 17.5898 51.072 16.7773ZM54.7166 20H53.6326V11H54.7166V20ZM56.1697 16.7715C56.1697 16.1504 56.2908 15.5918 56.533 15.0957C56.7791 14.5996 57.1189 14.2168 57.5525 13.9473C57.99 13.6777 58.488 13.543 59.0466 13.543C59.9099 13.543 60.6072 13.8418 61.1384 14.4395C61.6736 15.0371 61.9412 15.832 61.9412 16.8242V16.9004C61.9412 17.5176 61.822 18.0723 61.5837 18.5645C61.3494 19.0527 61.0115 19.4336 60.5701 19.707C60.1326 19.9805 59.6287 20.1172 59.0583 20.1172C58.199 20.1172 57.5017 19.8184 56.9666 19.2207C56.4353 18.623 56.1697 17.832 56.1697 16.8477V16.7715ZM57.2595 16.9004C57.2595 17.6035 57.4216 18.168 57.7458 18.5938C58.074 19.0195 58.5115 19.2324 59.0583 19.2324C59.6091 19.2324 60.0466 19.0176 60.3708 18.5879C60.6951 18.1543 60.8572 17.5488 60.8572 16.7715C60.8572 16.0762 60.6912 15.5137 60.3591 15.084C60.031 14.6504 59.5935 14.4336 59.0466 14.4336C58.5115 14.4336 58.0798 14.6465 57.7517 15.0723C57.4236 15.498 57.2595 16.1074 57.2595 16.9004ZM65.281 18.4121L66.7576 13.6602H67.9177L65.3689 20.9785C64.9744 22.0332 64.3474 22.5605 63.488 22.5605L63.283 22.543L62.8787 22.4668V21.5879L63.1716 21.6113C63.5388 21.6113 63.824 21.5371 64.0271 21.3887C64.2341 21.2402 64.4041 20.9688 64.5369 20.5742L64.7771 19.9297L62.5154 13.6602H63.699L65.281 18.4121ZM73.3376 12.125V13.6602H74.5212V14.498H73.3376V18.4297C73.3376 18.6836 73.3904 18.875 73.4958 19.0039C73.6013 19.1289 73.781 19.1914 74.0349 19.1914C74.1599 19.1914 74.3318 19.168 74.5505 19.1211V20C74.2654 20.0781 73.988 20.1172 73.7185 20.1172C73.2341 20.1172 72.8689 19.9707 72.6228 19.6777C72.3767 19.3848 72.2537 18.9688 72.2537 18.4297V14.498H71.0994V13.6602H72.2537V12.125H73.3376ZM75.3884 16.7715C75.3884 16.1504 75.5095 15.5918 75.7517 15.0957C75.9978 14.5996 76.3376 14.2168 76.7712 13.9473C77.2087 13.6777 77.7068 13.543 78.2654 13.543C79.1287 13.543 79.8259 13.8418 80.3572 14.4395C80.8923 15.0371 81.1599 15.832 81.1599 16.8242V16.9004C81.1599 17.5176 81.0408 18.0723 80.8025 18.5645C80.5681 19.0527 80.2302 19.4336 79.7888 19.707C79.3513 19.9805 78.8474 20.1172 78.2771 20.1172C77.4177 20.1172 76.7205 19.8184 76.1853 19.2207C75.6541 18.623 75.3884 17.832 75.3884 16.8477V16.7715ZM76.4783 16.9004C76.4783 17.6035 76.6404 18.168 76.9646 18.5938C77.2927 19.0195 77.7302 19.2324 78.2771 19.2324C78.8279 19.2324 79.2654 19.0176 79.5896 18.5879C79.9138 18.1543 80.0759 17.5488 80.0759 16.7715C80.0759 16.0762 79.9099 15.5137 79.5779 15.084C79.2498 14.6504 78.8123 14.4336 78.2654 14.4336C77.7302 14.4336 77.2986 14.6465 76.9705 15.0723C76.6423 15.498 76.4783 16.1074 76.4783 16.9004ZM90.3767 17.7734H86.8025L85.9998 20H84.8396L88.0974 11.4688H89.0818L92.3455 20H91.1912L90.3767 17.7734ZM87.1423 16.8477H90.0427L88.5896 12.8574L87.1423 16.8477ZM94.9236 17.3105L95.0876 18.4355L95.3279 17.4219L97.0154 11.4688H97.9646L99.6111 17.4219L99.8455 18.4531L100.027 17.3047L101.351 11.4688H102.482L100.414 20H99.3884L97.6306 13.7832L97.4958 13.1328L97.3611 13.7832L95.5388 20H94.5134L92.4509 11.4688H93.5759L94.9236 17.3105ZM106.25 16.1973C105.285 15.9199 104.582 15.5801 104.14 15.1777C103.703 14.7715 103.484 14.2715 103.484 13.6777C103.484 13.0059 103.752 12.4512 104.287 12.0137C104.826 11.5723 105.525 11.3516 106.385 11.3516C106.97 11.3516 107.492 11.4648 107.949 11.6914C108.41 11.918 108.765 12.2305 109.015 12.6289C109.269 13.0273 109.396 13.4629 109.396 13.9355H108.265C108.265 13.4199 108.101 13.0156 107.773 12.7227C107.445 12.4258 106.982 12.2773 106.385 12.2773C105.83 12.2773 105.396 12.4004 105.084 12.6465C104.775 12.8887 104.621 13.2266 104.621 13.6602C104.621 14.0078 104.767 14.3027 105.06 14.5449C105.357 14.7832 105.859 15.002 106.566 15.2012C107.277 15.4004 107.832 15.6211 108.23 15.8633C108.633 16.1016 108.929 16.3809 109.121 16.7012C109.316 17.0215 109.414 17.3984 109.414 17.832C109.414 18.5234 109.144 19.0781 108.605 19.4961C108.066 19.9102 107.345 20.1172 106.443 20.1172C105.857 20.1172 105.31 20.0059 104.802 19.7832C104.295 19.5566 103.902 19.248 103.625 18.8574C103.351 18.4668 103.215 18.0234 103.215 17.5273H104.345C104.345 18.043 104.535 18.4512 104.914 18.752C105.297 19.0488 105.806 19.1973 106.443 19.1973C107.037 19.1973 107.492 19.0762 107.808 18.834C108.125 18.5918 108.283 18.2617 108.283 17.8438C108.283 17.4258 108.136 17.1035 107.844 16.877C107.551 16.6465 107.019 16.4199 106.25 16.1973Z" fill="white"/>
<path d="M19.216 18.6427C18.0613 18.6427 16.9634 18.187 16.1243 17.3595L16.1222 17.3573C15.3014 16.5115 14.8495 15.4046 14.8495 14.2405V14.096H16.6509V14.2413C16.6509 14.9272 16.9212 15.5849 17.4022 16.0699C17.8833 16.5548 18.5357 16.8273 19.216 16.8273C19.8963 16.8273 20.5487 16.5548 21.0298 16.0699C21.5108 15.5849 21.7811 14.9272 21.7811 14.2413C21.7822 13.903 21.7163 13.5679 21.5873 13.2556C21.4583 12.9433 21.2688 12.6601 21.0299 12.4225C20.7911 12.1837 20.5081 11.9946 20.1969 11.866C19.8856 11.7375 19.5523 11.672 19.216 11.6734H19.0717V9.85638H19.216C20.3891 9.85638 21.4813 10.3061 22.2914 11.1228C23.1241 11.9622 23.5824 13.0693 23.5824 14.2407C23.5824 15.4122 23.1239 16.5193 22.2914 17.3587C21.8884 17.7671 21.4091 18.0908 20.8812 18.3112C20.3534 18.5316 19.7874 18.6443 19.216 18.6427Z" fill="#EF7C52"/>
<path d="M23.6296 20.3779H14.8757V22.1436H23.6296V20.3779Z" fill="white"/>
</svg>
